<?xml version="1.0" standalone="no"?><!DOCTYPE svg PUBLIC "-//W3C//DTD SVG 1.1//EN" "http://www.w3.org/Graphics/SVG/1.1/DTD/svg11.dtd"><svg class="icon" width="200px" height="200.00px" viewBox="0 0 1024 1024" version="1.1" xmlns="http://www.w3.org/2000/svg"><path d="M302.545296 581.818483h186.181691v23.272712h-186.181691zM302.545296 628.363906h186.181691v23.272712h-186.181691z" fill="#26a32e" /><path d="M511.999699 0.000698a442.181517 442.181517 0 0 0-116.363558 869.003044A289.745257 289.745257 0 0 1 511.999699 1024a289.745257 289.745257 0 0 1 116.363557-154.996258A442.181517 442.181517 0 0 0 511.999699 0.000698zM153.83267 488.727638a23.272711 23.272711 0 0 1-20.247259-34.909067l104.494474-181.061695a23.272711 23.272711 0 0 1 37.93452-3.490907l117.992647 136.610816 29.78907-51.665419a23.272711 23.272711 0 0 1 37.93452-3.490907l85.876305 99.607205a23.272711 23.272711 0 0 1-17.687261 38.399974H153.83267z m393.076096 186.181691h-23.272712v34.909067a11.636356 11.636356 0 0 1-11.636355 11.636356h-23.272712a11.636356 11.636356 0 0 1-11.636356-11.636356V674.909329h-162.908979v34.909067a11.636356 11.636356 0 0 1-11.636356 11.636356H279.272584a11.636356 11.636356 0 0 1-11.636355-11.636356V674.909329h-23.272712a11.636356 11.636356 0 0 1 0-23.272711H279.272584v-23.272712h-11.636355a11.636356 11.636356 0 0 1 0-23.272711H279.272584v-23.272712h-11.636355a11.636356 11.636356 0 0 1 0-23.272711H279.272584v-11.636356a11.636356 11.636356 0 0 1 23.272712 0v11.636356h186.181691v-11.636356a11.636356 11.636356 0 0 1 23.272712 0v11.636356h11.636355a11.636356 11.636356 0 0 1 0 23.272711H511.999699v23.272712h11.636355a11.636356 11.636356 0 0 1 0 23.272711H511.999699v23.272712h34.909067a11.636356 11.636356 0 0 1 0 23.272711z m324.421597-75.403585h-111.010834v143.825356a24.669074 24.669074 0 0 1-49.338148 0v-143.825356h-111.010833a24.669074 24.669074 0 0 1-21.410895-37.003611l58.414506-101.003568h-11.636356a24.669074 24.669074 0 0 1-20.247259-37.003611l61.905412-107.287199h-4.421815a24.669074 24.669074 0 0 1-22.341803-37.93452l74.007223-128.23264a24.669074 24.669074 0 0 1 42.821789 0L830.835845 279.273235a24.669074 24.669074 0 0 1-21.178168 37.003611h-4.421815l61.905413 107.2872a24.669074 24.669074 0 0 1-21.410895 37.003611h-11.403629l58.414506 101.003567a24.669074 24.669074 0 0 1-21.410894 37.93452z" fill="#26a32e" /></svg>